<svg width="21" height="20" viewBox="0 0 21 20" fill="none" xmlns="http://www.w3.org/2000/svg">
<path d="M10.5352 0C5.18359 0 0.847656 4.33594 0.847656 9.6875C0.847656 15.0391 5.18359 19.375 10.5352 19.375C15.8867 19.375 20.2227 15.0391 20.2227 9.6875C20.2227 4.33594 15.8867 0 10.5352 0ZM18.9727 9.6875C18.9727 14.3359 15.1836 18.125 10.5352 18.125C5.88672 18.125 2.09766 14.375 2.09766 9.6875C2.09766 5.07812 5.84766 1.25 10.5352 1.25C15.1445 1.25 18.9727 5.03906 18.9727 9.6875ZM13.1523 13.1641C13.3477 13.3203 13.6602 13.2422 13.7773 13.0469L14.1289 12.6172C14.2852 12.3828 14.207 12.1094 14.0117 11.9531L11.2773 9.96094V4.21875C11.2773 3.98438 11.043 3.75 10.8086 3.75H10.2617C9.98828 3.75 9.79297 3.98438 9.79297 4.21875V10.4688C9.79297 10.625 9.83203 10.7422 9.94922 10.8594L13.1523 13.1641Z" fill="#29C3B3"/>
</svg>
