<svg width="21" height="17" viewBox="0 0 21 17" fill="none" xmlns="http://www.w3.org/2000/svg">
<path fill-rule="evenodd" clip-rule="evenodd" d="M0 0.794922C0 0.518779 0.223858 0.294922 0.5 0.294922H20.5C20.7761 0.294922 21 0.51878 21 0.794922V1.84286C21 2.119 20.7761 2.34286 20.5 2.34286H0.500001C0.223858 2.34286 0 2.119 0 1.84286V0.794922ZM0 7.95557C0 7.67942 0.223858 7.45557 0.5 7.45557H20.5C20.7761 7.45557 21 7.67942 21 7.95557V9.00351C21 9.27965 20.7761 9.50351 20.5 9.50351H0.500001C0.223858 9.50351 0 9.27965 0 9.00351V7.95557ZM0.5 14.6143C0.223858 14.6143 0 14.8381 0 15.1143V16.1622C0 16.4383 0.223858 16.6622 0.500001 16.6622H20.5C20.7761 16.6622 21 16.4383 21 16.1622V15.1143C21 14.8381 20.7761 14.6143 20.5 14.6143H0.5Z" fill="#2972E0"/>
</svg>
