<svg width="30" height="30" viewBox="0 0 30 30" fill="none" xmlns="http://www.w3.org/2000/svg">
<path d="M0.439453 21.59L0.439453 7.65001C0.439453 3.42503 3.86448 0 8.08945 0L22.0295 0C26.2544 0 29.6795 3.42503 29.6795 7.65001V21.59C29.6795 25.815 26.2544 29.24 22.0295 29.24H8.08945C3.86448 29.24 0.439453 25.815 0.439453 21.59Z" fill="#C32AA3"/>
<path d="M0.439453 21.59L0.439453 7.65001C0.439453 3.42503 3.86448 0 8.08945 0L22.0295 0C26.2544 0 29.6795 3.42503 29.6795 7.65001V21.59C29.6795 25.815 26.2544 29.24 22.0295 29.24H8.08945C3.86448 29.24 0.439453 25.815 0.439453 21.59Z" fill="url(#paint0_linear_2_16656)"/>
<path d="M0.439453 21.59L0.439453 7.65001C0.439453 3.42503 3.86448 0 8.08945 0L22.0295 0C26.2544 0 29.6795 3.42503 29.6795 7.65001V21.59C29.6795 25.815 26.2544 29.24 22.0295 29.24H8.08945C3.86448 29.24 0.439453 25.815 0.439453 21.59Z" fill="url(#paint1_linear_2_16656)"/>
<path d="M20.09 8.5166C19.8709 8.5166 19.6568 8.58156 19.4747 8.70327C19.2925 8.82497 19.1506 8.99795 19.0667 9.20034C18.9829 9.40273 18.961 9.62543 19.0037 9.84028C19.0464 10.0551 19.1519 10.2525 19.3068 10.4074C19.4617 10.5623 19.6591 10.6678 19.8739 10.7105C20.0888 10.7533 20.3115 10.7313 20.5139 10.6475C20.7163 10.5637 20.8893 10.4217 21.011 10.2396C21.1327 10.0574 21.1976 9.84326 21.1976 9.6242C21.1976 9.33045 21.0809 9.04872 20.8732 8.84101C20.6655 8.63329 20.3838 8.5166 20.09 8.5166Z" fill="white"/>
<path d="M15.1396 9.94533C14.212 9.94314 13.3047 10.2163 12.5325 10.7303C11.7603 11.2443 11.1581 11.9759 10.8021 12.8324C10.4461 13.689 10.3524 14.6319 10.5328 15.5418C10.7133 16.4516 11.1597 17.2875 11.8156 17.9434C12.4715 18.5993 13.3073 19.0457 14.2172 19.2261C15.127 19.4065 16.07 19.3128 16.9266 18.9569C17.7831 18.6009 18.5147 17.9986 19.0287 17.2265C19.5426 16.4543 19.8158 15.547 19.8136 14.6194C19.8107 13.3807 19.3173 12.1935 18.4414 11.3176C17.5655 10.4416 16.3783 9.94825 15.1396 9.94533V9.94533ZM15.1396 17.621C14.5459 17.621 13.9656 17.445 13.472 17.1151C12.9784 16.7853 12.5936 16.3165 12.3665 15.7681C12.1393 15.2196 12.0799 14.6161 12.1957 14.0338C12.3115 13.4516 12.5974 12.9167 13.0171 12.4969C13.4369 12.0772 13.9717 11.7913 14.554 11.6755C15.1362 11.5597 15.7398 11.6191 16.2882 11.8463C16.8367 12.0735 17.3055 12.4582 17.6353 12.9518C17.9651 13.4454 18.1412 14.0257 18.1412 14.6194C18.1426 15.014 18.066 15.405 17.9157 15.7698C17.7653 16.1346 17.5443 16.4661 17.2653 16.7451C16.9863 17.0241 16.6548 17.2452 16.2899 17.3955C15.9251 17.5458 15.5342 17.6225 15.1396 17.621V17.621Z" fill="white"/>
<path d="M18.8596 24.1223H11.2836C9.76973 24.1223 8.31771 23.5217 7.24622 22.4523C6.17473 21.3828 5.57129 19.932 5.56836 18.4182V10.8311C5.57129 9.31916 6.1732 7.86998 7.2423 6.80088C8.3114 5.73178 9.76056 5.12988 11.2725 5.12695H18.8596C20.3715 5.12988 21.8206 5.73178 22.8897 6.80088C23.9588 7.86998 24.5608 9.31916 24.5637 10.8311V18.4182C24.5608 19.9301 23.9588 21.3793 22.8897 22.4484C21.8206 23.5175 20.3715 24.1194 18.8596 24.1223V24.1223ZM11.2836 6.92126C10.2456 6.92126 9.24998 7.33284 8.51498 8.06575C7.77999 8.79867 7.3656 9.79313 7.36267 10.8311V18.4182C7.3656 19.4561 7.77999 20.4506 8.51498 21.1835C9.24998 21.9164 10.2456 22.328 11.2836 22.328H18.8596C19.8975 22.328 20.8932 21.9164 21.6281 21.1835C22.3631 20.4506 22.7775 19.4561 22.7805 18.4182V10.8311C22.7775 9.79313 22.3631 8.79867 21.6281 8.06575C20.8932 7.33284 19.8975 6.92126 18.8596 6.92126H11.2836Z" fill="white"/>
<defs>
<linearGradient id="paint0_linear_2_16656" x1="4.97727" y1="25.3066" x2="13.2899" y2="12.5477" gradientUnits="userSpaceOnUse">
<stop stop-color="#FFDC7D"/>
<stop offset="0.49023" stop-color="#F46F30" stop-opacity="0.83"/>
<stop offset="1" stop-color="#C32AA3" stop-opacity="0.76"/>
</linearGradient>
<linearGradient id="paint1_linear_2_16656" x1="8.27624" y1="1.43293e-07" x2="13.0246" y2="14.6201" gradientUnits="userSpaceOnUse">
<stop offset="0.0720184" stop-color="#4C5FD7"/>
<stop offset="1" stop-color="#C32AA3" stop-opacity="0"/>
</linearGradient>
</defs>
</svg>
