<svg width="31" height="30" viewBox="0 0 31 30" fill="none" xmlns="http://www.w3.org/2000/svg">
<path d="M30.2217 21.59V7.65001C30.2217 3.42503 26.7966 0 22.5717 0L8.63168 0C4.4067 0 0.981674 3.42503 0.981674 7.65001V21.59C0.981674 25.815 4.4067 29.24 8.63168 29.24H22.5717C26.7966 29.24 30.2217 25.815 30.2217 21.59Z" fill="#007BB6"/>
<path d="M8.21912 11.4506H11.603V22.3317H8.21912V11.4506ZM9.91705 6.0459C10.3049 6.0459 10.684 6.1609 11.0065 6.37638C11.329 6.59185 11.5804 6.89813 11.7288 7.25646C11.8772 7.61478 11.916 8.00906 11.8404 8.38946C11.7647 8.76985 11.5779 9.11927 11.3037 9.39352C11.0294 9.66777 10.68 9.85454 10.2996 9.93021C9.91922 10.0059 9.52494 9.96704 9.16662 9.81862C8.80829 9.67019 8.50203 9.41884 8.28655 9.09636C8.07107 8.77387 7.95605 8.39474 7.95605 8.00689C7.95605 7.4868 8.16266 6.98802 8.53042 6.62026C8.89818 6.2525 9.39696 6.0459 9.91705 6.0459" fill="white"/>
<path d="M13.6953 11.4514H16.9357V12.9341C17.2638 12.3848 17.7329 11.9333 18.2942 11.6263C18.8556 11.3194 19.4888 11.1681 20.1283 11.1883C23.5601 11.1883 24.1818 13.4363 24.1818 16.3658V22.3444H20.8099V17.0474C20.8099 15.8516 20.8099 14.1657 19.0522 14.1657C17.2944 14.1657 17.0194 15.5408 17.0194 16.9637V22.3444H13.6475L13.6953 11.4514Z" fill="white"/>
</svg>
