<svg width="16" height="22" viewBox="0 0 16 22" fill="none" xmlns="http://www.w3.org/2000/svg">
	<path d="M8.34766 4.74023C6.27734 4.74023 4.59766 6.45898 4.59766 8.49023C4.59766 10.5605 6.27734 12.2402 8.34766 12.2402C10.3789 12.2402 12.0977 10.5605 12.0977 8.49023C12.0977 6.45898 10.3789 4.74023 8.34766 4.74023ZM8.34766 10.9902C6.94141 10.9902 5.84766 9.89648 5.84766 8.49023C5.84766 7.12305 6.94141 5.99023 8.34766 5.99023C9.71484 5.99023 10.8477 7.12305 10.8477 8.49023C10.8477 9.89648 9.71484 10.9902 8.34766 10.9902ZM8.34766 0.990234C4.16797 0.990234 0.847656 4.34961 0.847656 8.49023C0.847656 11.5371 1.86328 12.3965 7.56641 20.5996C7.91797 21.1465 8.73828 21.1465 9.08984 20.5996C14.793 12.3965 15.8477 11.5371 15.8477 8.49023C15.8477 4.34961 12.4883 0.990234 8.34766 0.990234ZM8.34766 19.5059C2.87891 11.6543 2.09766 11.0293 2.09766 8.49023C2.09766 6.84961 2.72266 5.28711 3.89453 4.07617C5.10547 2.9043 6.66797 2.24023 8.34766 2.24023C9.98828 2.24023 11.5508 2.9043 12.7617 4.07617C13.9336 5.28711 14.5977 6.84961 14.5977 8.49023C14.5977 11.0293 13.7773 11.6543 8.34766 19.5059Z" fill="#03030f"/>
</svg>
