<svg width="19" height="19" viewBox="0 0 19 19" fill="none" xmlns="http://www.w3.org/2000/svg">
<path d="M18.3594 17.2383L14.1055 12.9844C14 12.9141 13.8945 12.8438 13.7891 12.8438H13.332C14.4219 11.5781 15.125 9.89062 15.125 8.0625C15.125 4.05469 11.8203 0.75 7.8125 0.75C3.76953 0.75 0.5 4.05469 0.5 8.0625C0.5 12.1055 3.76953 15.375 7.8125 15.375C9.64062 15.375 11.293 14.707 12.5938 13.6172V14.0742C12.5938 14.1797 12.6289 14.2852 12.6992 14.3906L16.9531 18.6445C17.1289 18.8203 17.4102 18.8203 17.5508 18.6445L18.3594 17.8359C18.5352 17.6953 18.5352 17.4141 18.3594 17.2383ZM7.8125 13.6875C4.68359 13.6875 2.1875 11.1914 2.1875 8.0625C2.1875 4.96875 4.68359 2.4375 7.8125 2.4375C10.9062 2.4375 13.4375 4.96875 13.4375 8.0625C13.4375 11.1914 10.9062 13.6875 7.8125 13.6875Z" fill="#2972E0"/>
</svg>
