<svg width="417" height="353" viewBox="0 0 417 353" fill="none" xmlns="http://www.w3.org/2000/svg">
<path fill-rule="evenodd" clip-rule="evenodd" d="M68.6835 3.99392C60.6698 12.4927 47.2837 12.8859 38.7849 4.87209C30.2862 -3.14171 29.893 -16.5277 37.9068 -25.0265C45.9206 -33.5253 59.3066 -33.9185 67.8054 -25.9047C76.3042 -17.8909 76.6973 -4.50487 68.6835 3.99392Z" stroke="#B7D8FF" stroke-width="2"/>
<path d="M106.872 40.2781C78.9748 69.8638 32.3762 71.2318 2.79112 43.3351C-26.7945 15.4378 -28.1632 -31.1602 -0.265893 -60.7459C27.6314 -90.3315 74.2294 -91.7002 103.815 -63.8029" stroke="#B7D8FF" stroke-width="2"/>
<path d="M103.67 -63.9396C133.175 -36.1179 134.54 10.3545 106.719 39.8594" stroke="#B7D8FF" stroke-width="2"/>
<path d="M125.882 57.928C88.0817 98.0165 24.9653 99.8951 -15.0918 62.1239C-23.4528 54.2401 -30.148 45.2523 -35.1659 35.5999" stroke="#B7D8FF" stroke-width="2"/>
<path d="M202.244 129.932C124.676 212.194 -4.89017 215.999 -87.1521 138.432" stroke="#B7D8FF" stroke-width="2"/>
<path d="M-105.016 157.79C-197.814 70.2871 -202.133 -75.8483 -114.662 -168.614C-27.1907 -261.378 118.947 -265.644 211.745 -178.142C248.544 -143.443 271.429 -99.5237 280.195 -53.3694" stroke="#B7D8FF" stroke-width="2"/>
<path d="M6.29833 215.579C-34.2021 207.3 -72.9552 188.019 -105.222 157.594" stroke="#B7D8FF" stroke-width="2"/>
<path d="M178.689 183.415C127.12 216.801 64.9068 227.658 6.29817 215.579" stroke="#B7D8FF" stroke-width="2"/>
<path d="M280.142 -53.3148C293.389 16.8725 273.953 92.2737 221.134 148.289C208.114 162.098 193.798 173.951 178.556 183.836" stroke="#B7D8FF" stroke-width="2"/>
<path fill-rule="evenodd" clip-rule="evenodd" d="M87.7104 22.2079C69.7931 41.2096 39.8637 42.0891 20.8613 24.1711C1.85948 6.25363 0.980862 -23.6757 18.8982 -42.6774C36.8155 -61.6791 66.7448 -62.5586 85.7466 -44.6411C104.749 -26.7231 105.628 3.20626 87.7104 22.2079Z" stroke="#B7D8FF" stroke-width="2"/>
<path d="M-35.3972 35.8458C-54.4812 -0.810948 -49.4253 -47.0021 -19.5069 -78.7312C-7.73584 -91.2147 6.4962 -99.9875 21.7276 -105.007" stroke="#B7D8FF" stroke-width="2"/>
<path fill-rule="evenodd" clip-rule="evenodd" d="M164.071 94.2113C106.387 155.387 10.0323 158.217 -51.1423 100.533C-112.318 42.8489 -115.148 -53.5059 -57.4635 -114.681C0.220642 -175.856 96.5749 -178.686 157.75 -121.002C218.925 -63.3181 221.755 33.0361 164.071 94.2113Z" stroke="#B7D8FF" stroke-width="2"/>
<path d="M-87.1524 138.431C-169.414 60.8639 -173.22 -68.7026 -95.6523 -150.964" stroke="#B7D8FF" stroke-width="2"/>
<path d="M193.743 -159.464C276.005 -81.8969 279.811 47.6697 202.243 129.932" stroke="#B7D8FF" stroke-width="2"/>
<path fill-rule="evenodd" clip-rule="evenodd" d="M240.279 165.797C142.904 269.065 -19.7492 273.842 -123.017 176.467C-226.285 79.0923 -231.063 -83.5605 -133.688 -186.829C-36.3125 -290.098 126.34 -294.875 229.609 -197.499C332.877 -100.125 337.654 62.5281 240.279 165.797Z" stroke="#B7D8FF" stroke-width="2"/>
</svg>
