<svg width="30" height="30" viewBox="0 0 30 30" fill="none" xmlns="http://www.w3.org/2000/svg">
<path d="M29.3057 21.59V7.64999C29.3057 3.42502 25.8806 0 21.6557 0L7.71566 0C3.49068 0 0.0656662 3.42502 0.0656662 7.64999V21.59C0.0656662 25.815 3.49068 29.24 7.71566 29.24H21.6557C25.8806 29.24 29.3057 25.815 29.3057 21.59Z" fill="black"/>
<g clip-path="url(#clip0_2_16670)">
<path d="M11.37 19.2414L11.4134 19.2814C11.5489 19.3777 11.6465 19.5139 11.7748 19.6193C12.1629 19.9383 12.6422 20.1242 13.1429 20.1497C13.7344 20.1818 14.3157 19.9854 14.7679 19.6007C15.2201 19.2161 15.509 18.6723 15.5754 18.0806C15.5792 18.0201 15.5792 17.9594 15.5754 17.8989V6.89744C15.5754 6.65038 15.5754 6.65038 15.8194 6.65038H17.4838C17.5362 6.64161 17.5901 6.64988 17.6375 6.674V6.674C17.6605 6.70211 17.6755 6.73603 17.6808 6.7721C17.8796 7.73488 18.4369 8.5849 19.2387 9.14824C19.2893 9.18457 19.3326 9.23181 19.3814 9.27177L19.4863 9.36079C19.607 9.44777 19.72 9.54501 19.8242 9.65145C20.2659 10.0235 20.7854 10.2905 21.3441 10.4326C21.3947 10.4471 21.4507 10.4453 21.4869 10.4925L21.4977 10.5016C21.51 10.5191 21.5187 10.5389 21.5234 10.5598C21.5281 10.5806 21.5285 10.6023 21.5248 10.6233V12.5635C21.5248 12.7106 21.5049 12.7197 21.3567 12.7197C20.8874 12.7163 20.42 12.6596 19.9634 12.5508C19.1833 12.3688 18.442 12.0476 17.7748 11.6025C17.7405 11.5789 17.7025 11.5298 17.6664 11.5462C17.6302 11.5625 17.6429 11.6298 17.6429 11.6734C17.6429 13.49 17.6429 15.3157 17.6429 17.136C17.6427 18.413 17.176 19.6455 16.3315 20.5996C15.487 21.5537 14.3234 22.1629 13.0616 22.3115C12.0489 22.4355 11.0226 22.2527 10.114 21.7865C9.96246 21.7129 9.81841 21.6247 9.68384 21.5231L9.55553 21.4087C9.25063 21.1334 8.99563 20.807 8.80191 20.444C8.48406 19.9027 8.27012 19.3062 8.17119 18.6855C8.04681 17.9482 8.08375 17.1924 8.27944 16.4708C8.47513 15.7493 8.82487 15.0792 9.30433 14.5073C9.91966 13.7666 10.7282 13.213 11.6393 12.9087C12.0235 12.776 12.4232 12.6942 12.8284 12.6652C12.9038 12.6537 12.9799 12.6476 13.0561 12.6471C13.0921 12.6429 13.1285 12.6512 13.1591 12.6707H13.17C13.186 12.7078 13.1917 12.7486 13.1863 12.7888C13.1863 13.4452 13.1863 14.101 13.1863 14.7562C13.1863 14.7798 13.1863 14.8034 13.1863 14.827C13.1863 14.8924 13.1501 14.9142 13.0887 14.8961C12.9117 14.8477 12.7298 14.8197 12.5465 14.8125C12.2619 14.7955 11.977 14.8382 11.7098 14.9378C10.8061 15.2703 10.264 15.9152 10.1537 16.8671C10.0435 17.819 10.4103 18.5566 11.1857 19.0961C11.2494 19.1415 11.311 19.19 11.37 19.2414V19.2414Z" fill="white"/>
<path d="M9.68018 21.5286C9.71451 21.5286 9.73439 21.5467 9.75789 21.5613C10.3357 21.917 10.9773 22.1552 11.6464 22.2625C11.9849 22.3188 12.3284 22.3389 12.6711 22.3224C13.9541 22.2722 15.1718 21.7408 16.0844 20.833C16.9969 19.9251 17.5381 18.7066 17.6013 17.4175C17.6103 17.2141 17.6103 17.0124 17.6103 16.8108V11.4844C17.6555 11.4735 17.6754 11.5062 17.7007 11.5244C18.3105 11.9455 18.9861 12.2611 19.6995 12.4581C20.0933 12.5671 20.4962 12.6401 20.9031 12.6761C21.073 12.6925 21.2446 12.6888 21.4163 12.7016C21.4904 12.7016 21.4922 12.7016 21.4922 12.6253C21.4922 12.549 21.4922 12.46 21.4922 12.3764V10.6161C21.4922 10.5797 21.4922 10.5434 21.4922 10.5071C21.6458 10.5234 21.7976 10.5561 21.9513 10.5688C22.0467 10.5785 22.1427 10.5828 22.2386 10.5816C22.2856 10.5816 22.3055 10.5979 22.3001 10.6451C22.2946 10.6924 22.3001 10.6851 22.3001 10.7051V13.3029C22.3001 13.3755 22.3001 13.3774 22.2205 13.3774C21.9564 13.3771 21.6926 13.3595 21.4308 13.3247C20.3828 13.1884 19.3822 12.8029 18.5121 12.2002L18.4181 12.1402V12.2583C18.4181 14.1125 18.4181 15.9667 18.4181 17.8208C18.4189 18.5317 18.274 19.235 17.9924 19.887C17.7107 20.5391 17.2985 21.1258 16.7813 21.6105C16.2641 22.0953 15.6531 22.4678 14.9863 22.7046C14.3196 22.9415 13.6115 23.0377 12.9061 22.9873C11.7238 22.9081 10.6058 22.418 9.74343 21.6012C9.72097 21.5782 9.69985 21.554 9.68018 21.5286V21.5286Z" fill="#CB1C54"/>
<path d="M17.6448 6.67403H17.5363H15.7544C15.6152 6.67403 15.6152 6.67403 15.6152 6.80846C15.6152 10.4562 15.6152 14.1052 15.6152 17.7555C15.6227 18.0074 15.5897 18.2589 15.5176 18.5003C15.4056 18.9023 15.1859 19.2656 14.8826 19.5508C14.5792 19.8359 14.2037 20.0318 13.7972 20.1171C12.8628 20.3314 12.0695 20.0444 11.4387 19.3159C11.4287 19.3034 11.4196 19.29 11.4116 19.276C11.5903 19.3528 11.7753 19.4136 11.9646 19.4576C12.2762 19.5226 12.5977 19.5236 12.9097 19.4605C13.2216 19.3974 13.5177 19.2715 13.78 19.0904C14.0424 18.9094 14.2656 18.6769 14.4362 18.4069C14.6069 18.1368 14.7215 17.8349 14.7731 17.5193C14.7938 17.3847 14.8029 17.2485 14.8002 17.1124V6.15084C14.8002 5.98008 14.7767 6.00188 14.9466 6.00188H17.5219C17.6068 6.00188 17.6086 6.00188 17.6086 6.0909C17.6008 6.28601 17.6129 6.48141 17.6448 6.67403Z" fill="#6ABAC5"/>
<path d="M13.1558 12.6688C12.6459 12.6838 12.1408 12.7719 11.6558 12.9304C10.8551 13.1975 10.1317 13.6574 9.54862 14.2702C8.96552 14.8829 8.54048 15.6298 8.31058 16.4456C8.21517 16.7799 8.1546 17.1233 8.12986 17.4702C8.07724 18.1841 8.17405 18.9011 8.41404 19.5751C8.65404 20.2491 9.03189 20.865 9.52323 21.3832C9.53151 21.3927 9.53878 21.403 9.54492 21.4141C9.44824 21.3655 9.35832 21.3044 9.27744 21.2324C8.6161 20.7151 8.09105 20.0426 7.74825 19.274C7.40546 18.5053 7.25538 17.6639 7.31118 16.8234C7.37714 15.8211 7.73249 14.8598 8.33371 14.0573C8.93493 13.2548 9.75592 12.6461 10.6961 12.3055C11.1373 12.1455 11.5982 12.0471 12.066 12.013C12.4045 11.9891 12.7446 11.997 13.0817 12.0366C13.1268 12.0366 13.154 12.0512 13.154 12.1057C13.1576 12.291 13.1576 12.4799 13.1558 12.6688Z" fill="#6ABAC5"/>
<path d="M11.3701 19.2413C11.1692 19.1436 10.9859 19.0128 10.8279 18.8543C10.4267 18.476 10.174 17.9655 10.1159 17.4156C10.072 17.0308 10.1229 16.6411 10.2641 16.2808C10.4053 15.9205 10.6325 15.6007 10.9257 15.3494C11.2189 15.0981 11.569 14.9232 11.9453 14.84C12.3215 14.7568 12.7124 14.7679 13.0834 14.8723C13.1072 14.8827 13.1336 14.8858 13.1593 14.8814C13.1665 14.846 13.1665 14.8096 13.1593 14.7742V12.7814C13.1593 12.745 13.1593 12.7087 13.1593 12.6724C13.4134 12.6611 13.668 12.6727 13.9201 12.7069C13.9599 12.7069 13.9707 12.7305 13.9689 12.765V15.4609C13.9754 15.4953 13.971 15.5309 13.9563 15.5626C13.8424 15.5408 13.7285 15.5063 13.6111 15.4881C13.2906 15.4364 12.9629 15.4531 12.6493 15.5373C12.3357 15.6215 12.0433 15.7713 11.7912 15.9768C11.3305 16.3326 11.0237 16.853 10.9346 17.4301C10.8815 17.7315 10.8884 18.0405 10.9548 18.3392C11.0212 18.6379 11.1457 18.9204 11.3213 19.1704L11.3701 19.2413Z" fill="#CB1C54"/>
<path d="M19.3817 9.2771C19.1309 9.12674 18.9012 8.94346 18.6985 8.73211C18.1571 8.17849 17.7938 7.47403 17.6558 6.7102C17.6558 6.7102 17.6558 6.69749 17.6558 6.69022C17.8943 6.67751 18.1311 6.69022 18.3678 6.69022C18.4112 6.69022 18.4293 6.70476 18.4256 6.74836C18.4247 6.76469 18.4247 6.78107 18.4256 6.7974C18.4235 7.45007 18.5991 8.09089 18.9335 8.65036C19.0507 8.85473 19.1869 9.04754 19.3401 9.22623C19.3546 9.23168 19.378 9.24803 19.3817 9.2771Z" fill="#CB1C54"/>
<path d="M21.4869 10.4979C20.8225 10.3586 20.2066 10.0452 19.7014 9.58957C19.6226 9.52432 19.5506 9.4513 19.4863 9.37158C19.5116 9.37158 19.5297 9.38429 19.5496 9.39519C19.9563 9.62838 20.4013 9.7865 20.8634 9.86207C21.0424 9.89434 21.2238 9.91076 21.4056 9.91112C21.4833 9.91112 21.4851 9.91112 21.4851 9.9856C21.4924 10.1545 21.4887 10.3271 21.4869 10.4979Z" fill="#6ABAC5"/>
</g>
<defs>
<clipPath id="clip0_2_16670">
<rect width="15" height="17" fill="white" transform="translate(7.30566 6)"/>
</clipPath>
</defs>
</svg>
