<svg width="30" height="30" viewBox="0 0 30 30" fill="none" xmlns="http://www.w3.org/2000/svg">
<path d="M29.7637 21.59V7.64999C29.7637 3.42502 26.3386 0 22.1137 0L8.17367 0C3.94869 0 0.523674 3.42502 0.523674 7.64999V21.59C0.523674 25.815 3.94869 29.24 8.17367 29.24H22.1137C26.3386 29.24 29.7637 25.815 29.7637 21.59Z" fill="#00ACED"/>
<path d="M23.216 9.60999C22.7021 9.83394 22.1606 9.98863 21.606 10.07C21.866 10.07 22.246 9.56 22.406 9.37C22.6445 9.07331 22.8244 8.73394 22.936 8.37C22.936 8.37 22.936 8.30999 22.936 8.28999C22.9223 8.28209 22.9068 8.27794 22.891 8.27794C22.8752 8.27794 22.8597 8.28209 22.846 8.28999C22.2423 8.61216 21.6007 8.85741 20.936 9.02C20.9166 9.03248 20.894 9.03912 20.871 9.03912C20.8479 9.03912 20.8254 9.03248 20.806 9.02C20.746 8.96 20.696 8.89999 20.636 8.84999C20.3596 8.6125 20.0452 8.4232 19.706 8.28999C19.2571 8.10341 18.7708 8.02464 18.286 8.06C17.8173 8.08927 17.3603 8.21886 16.946 8.43999C16.5257 8.6591 16.1547 8.962 15.856 9.32999C15.5422 9.70754 15.3197 10.1524 15.206 10.63C15.1209 11.0827 15.1209 11.5473 15.206 12C15.206 12.08 15.206 12.09 15.146 12.08C12.6143 11.8237 10.2703 10.6286 8.57597 8.73C8.49597 8.65 8.45598 8.65 8.39598 8.73C8.05235 9.3601 7.92216 10.0846 8.02492 10.7949C8.12768 11.5052 8.45787 12.1631 8.96599 12.67C9.09239 12.7944 9.22594 12.9112 9.36598 13.02C8.9241 12.986 8.49292 12.8671 8.09599 12.67C8.01599 12.67 7.986 12.67 7.976 12.73C7.96127 12.8562 7.96127 12.9838 7.976 13.11C8.05648 13.7044 8.2946 14.2664 8.66564 14.7376C9.03667 15.2089 9.52709 15.5723 10.086 15.79C10.2187 15.8541 10.3603 15.898 10.506 15.92C10.0925 15.9931 9.66946 15.9931 9.256 15.92C9.166 15.92 9.13597 15.92 9.16597 16.04C9.37989 16.597 9.73307 17.0899 10.1918 17.4716C10.6504 17.8532 11.1993 18.1109 11.786 18.22C11.896 18.22 12.016 18.22 12.136 18.22C11.846 18.67 10.826 19 10.356 19.17C9.48837 19.4804 8.56398 19.5998 7.64598 19.52C7.49598 19.52 7.46598 19.52 7.42598 19.52C7.38598 19.52 7.42598 19.58 7.42598 19.61C7.42598 19.64 7.80599 19.84 7.99599 19.95C8.57185 20.254 9.17865 20.4954 9.80599 20.67C11.4213 21.1568 13.1361 21.2108 14.7788 20.8264C16.4215 20.4421 17.9343 19.6329 19.166 18.48C20.0561 17.519 20.7448 16.3895 21.1913 15.158C21.6378 13.9266 21.8332 12.6182 21.766 11.31C21.766 11.21 21.886 11.15 21.956 11.1C22.4417 10.7176 22.8724 10.27 23.236 9.77C23.29 9.69803 23.3182 9.60996 23.316 9.52V9.52C23.316 9.52 23.286 9.57999 23.216 9.60999Z" fill="white"/>
</svg>
