<svg width="21" height="16" viewBox="0 0 21 16" fill="none" xmlns="http://www.w3.org/2000/svg">
	<path d="M18.9727 0.5H2.72266C1.66797 0.5 0.847656 1.35938 0.847656 2.375V13.625C0.847656 14.6797 1.66797 15.5 2.72266 15.5H18.9727C19.9883 15.5 20.8477 14.6797 20.8477 13.625V2.375C20.8477 1.35938 19.9883 0.5 18.9727 0.5ZM2.72266 1.75H18.9727C19.2852 1.75 19.5977 2.0625 19.5977 2.375V4.01562C18.7383 4.71875 17.4883 5.73438 13.6992 8.74219C13.0352 9.28906 11.7461 10.5391 10.8477 10.5C9.91016 10.5391 8.62109 9.28906 7.95703 8.74219C4.16797 5.73438 2.91797 4.71875 2.09766 4.01562V2.375C2.09766 2.0625 2.37109 1.75 2.72266 1.75ZM18.9727 14.25H2.72266C2.37109 14.25 2.09766 13.9766 2.09766 13.625V5.61719C2.95703 6.35938 4.36328 7.49219 7.17578 9.71875C7.99609 10.3828 9.40234 11.7891 10.8477 11.75C12.2539 11.7891 13.6602 10.3828 14.4805 9.71875C17.293 7.49219 18.6992 6.35938 19.5977 5.61719V13.625C19.5977 13.9766 19.2852 14.25 18.9727 14.25Z" fill="#be1310"/>
</svg>
