<svg width="14" height="17" viewBox="0 0 14 17" fill="none" xmlns="http://www.w3.org/2000/svg">
	<path d="M1.31179 14.714C3.06085 16.5257 5.89553 16.5257 7.64459 14.714C9.27302 13.0274 11.9268 10.2787 13.5552 8.59203C13.706 8.43586 13.706 8.21721 13.5552 8.06104L13.0425 7.53005C12.8918 7.37388 12.6807 7.37388 12.5299 7.53005C10.9015 9.21673 8.24771 11.9654 6.61928 13.6521C5.44319 14.8702 3.51319 14.8702 2.3371 13.6521C1.16101 12.4339 1.16101 10.4349 2.3371 9.21673L9.12224 2.18891C9.9063 1.3768 11.1729 1.3768 11.9569 2.18891C12.741 3.00101 12.741 4.31287 11.9569 5.12497L6.2574 11.0283C5.86537 11.4344 5.23209 11.4344 4.84006 11.0283C4.47819 10.6535 4.47819 9.99759 4.84006 9.59154L9.69521 4.59398C9.84599 4.43781 9.84599 4.21917 9.69521 4.06299L9.18255 3.532C9.03177 3.37583 8.82068 3.37583 8.6699 3.532L3.84491 8.52956C2.87991 9.52907 2.87991 11.122 3.84491 12.0903C4.77975 13.0898 6.31772 13.0898 7.25256 12.0903L12.9822 6.18696C14.3393 4.78139 14.3393 2.53249 12.9822 1.12693C11.6252 -0.278637 9.45396 -0.278637 8.09693 1.12693L1.31179 8.15475C-0.437264 9.96636 -0.437264 12.9024 1.31179 14.714Z" fill="#0d0d0d"/>
</svg>
