<?xml version="1.0" encoding="utf-8"?>
<!-- Generator: Adobe Illustrator 24.0.0, SVG Export Plug-In . SVG Version: 6.00 Build 0)  -->
<svg version="1.1" id="Capa_1" xmlns="http://www.w3.org/2000/svg" xmlns:xlink="http://www.w3.org/1999/xlink" x="0px" y="0px"
	viewBox="0 0 219.3 365.4" style="enable-background:new 0 0 219.3 365.4;" xml:space="preserve">
	<g>
		<path fill="#be1310" d="M208.4,10.9C201.2,3.6,192.6,0,182.7,0H36.5c-9.9,0-18.5,3.6-25.7,10.9C3.6,18.1,0,26.6,0,36.5v292.4
			c0,9.9,3.6,18.5,10.8,25.7c7.2,7.2,15.8,10.9,25.7,10.9h146.2c9.9,0,18.5-3.6,25.7-10.9c7.2-7.2,10.9-15.8,10.9-25.7V36.5
			C219.3,26.6,215.7,18.1,208.4,10.9z M86.8,36.5h45.7c3,0,4.6,1.5,4.6,4.6c0,3-1.5,4.6-4.6,4.6H86.8c-3,0-4.6-1.5-4.6-4.6
			C82.2,38.1,83.7,36.5,86.8,36.5z M125.8,345c-4.5,4.5-9.9,6.7-16.1,6.7c-6.3,0-11.7-2.2-16.1-6.7c-4.5-4.5-6.7-9.9-6.7-16.1
			c0-6.3,2.2-11.7,6.7-16.1c4.5-4.5,9.9-6.7,16.1-6.7c6.3,0,11.7,2.2,16.1,6.7c4.5,4.5,6.7,9.9,6.7,16.1S130.2,340.6,125.8,345z
			M191.9,283.2c0,2.5-0.9,4.6-2.7,6.4c-1.8,1.8-3.9,2.7-6.4,2.7H36.5c-2.5,0-4.6-0.9-6.4-2.7s-2.7-4-2.7-6.4v-201
			c0-2.5,0.9-4.6,2.7-6.4c1.8-1.8,3.9-2.7,6.4-2.7h146.2c2.5,0,4.6,0.9,6.4,2.7c1.8,1.8,2.7,3.9,2.7,6.4L191.9,283.2L191.9,283.2
			L191.9,283.2z"/>
		</g>
	</svg>
