<svg width="21" height="20" viewBox="0 0 21 20" fill="none" xmlns="http://www.w3.org/2000/svg">
	<path d="M19.8957 0.97038L15.9894 0.0328802C15.4035 -0.0843073 14.8176 0.18913 14.5832 0.736005L12.7473 4.99382C12.5519 5.50163 12.6691 6.08757 13.0988 6.40007L15.2082 8.11882C13.8801 10.8532 11.6926 13.0407 8.95819 14.3688L7.23944 12.2594C6.92694 11.8298 6.34101 11.7126 5.83319 11.9079L1.57538 13.7438C1.06757 13.9782 0.755069 14.5641 0.872257 15.111L1.80976 19.0563C1.92694 19.6032 2.39569 19.9938 2.98163 19.9938C12.8254 19.9938 20.8723 12.0251 20.8723 2.14226C20.8723 1.55632 20.4816 1.08757 19.8957 0.97038ZM3.02069 18.7438L2.12226 14.8766L6.30194 13.0798L8.64569 15.9313C12.6691 14.0173 14.8566 11.8298 16.7707 7.80632L13.9191 5.46257L15.716 1.28288L19.5832 2.18132C19.5832 11.3219 12.1613 18.7438 3.02069 18.7438Z" fill="#03030f"/>
</svg>
