<?xml version="1.0" encoding="UTF-8"?> <svg xmlns="http://www.w3.org/2000/svg" width="31" height="30" viewBox="0 0 31 30" fill="none"><path d="M0.847656 21.65V7.65C0.852936 5.62271 1.66062 3.67998 3.09413 2.24647C4.52764 0.812957 6.47038 0.00527941 8.49767 0H22.4977C24.5232 0.00791583 26.4634 0.816755 27.8947 2.24998C29.3261 3.68321 30.1324 5.62444 30.1377 7.65V21.65C30.1324 23.6756 29.3261 25.6168 27.8947 27.05C26.4634 28.4832 24.5232 29.2921 22.4977 29.3H8.49767C6.47119 29.2921 4.52996 28.4836 3.09702 27.0506C1.66407 25.6177 0.855557 23.6765 0.847656 21.65Z" fill="#3B5998"></path><path d="M19.6359 15.8749L20.1367 12.616H17.055V10.5358C17.0332 10.2929 17.0664 10.0483 17.152 9.81992C17.2376 9.59158 17.3735 9.38544 17.5495 9.21674C17.7256 9.04805 17.9374 8.92113 18.1692 8.8454C18.401 8.76966 18.6469 8.74704 18.8886 8.77922H20.3062V6.00565C19.4732 5.86877 18.6311 5.79408 17.7869 5.78223C15.2136 5.78223 13.5341 7.32309 13.5341 10.166V12.616H10.6758V15.8749H13.5341V23.5177H17.055V15.8749H19.6359Z" fill="white"></path></svg> 