<?xml version="1.0" encoding="utf-8"?>
<!-- Generator: Adobe Illustrator 16.0.0, SVG Export Plug-In . SVG Version: 6.00 Build 0)  -->
<!DOCTYPE svg PUBLIC "-//W3C//DTD SVG 1.1//EN" "http://www.w3.org/Graphics/SVG/1.1/DTD/svg11.dtd">
<svg version="1.1" id="Layer_1" xmlns="http://www.w3.org/2000/svg" xmlns:xlink="http://www.w3.org/1999/xlink" x="0px" y="0px"
	 width="75px" height="75px" viewBox="270 357.25 75 75" enable-background="new 270 357.25 75 75" xml:space="preserve">
<title>badge-1</title>
<circle fill="none" stroke="#4385F4" stroke-width="4" stroke-linecap="square" stroke-miterlimit="10" stroke-dasharray="12,12,12,12,12,12" cx="1017.042" cy="362.711" r="243.39"/>
<path fill="#4385F4" d="M307.949,364.552c16.302,0.01,29.508,13.235,29.497,29.536c-0.011,16.3-13.234,29.508-29.536,29.497
	c-16.301-0.009-29.508-13.233-29.497-29.535c0.004-7.825,3.117-15.328,8.651-20.859c5.531-5.554,13.053-8.667,20.892-8.645
	 M307.957,363.215c-17.053,0-30.875,13.8-30.875,30.813s13.815,30.852,30.867,30.852c17.053,0,30.874-13.801,30.874-30.814
	c0-17.014-13.821-30.846-30.874-30.846L307.957,363.215z"/>
<path fill="#FFFFFF" d="M307.918,405.629c6.392,0,11.567-5.172,11.567-11.55c0-6.38-5.176-11.55-11.567-11.55
	c-6.388,0-11.566,5.172-11.566,11.55S301.531,405.629,307.918,405.629"/>
<polygon fill="#FF7058" points="310.199,394.337 306.698,394.337 307.296,393.064 307.812,391.872 309.087,391.872 309.604,393.064 
	"/>
<path fill="#FFD15C" d="M312.428,394.337h-7.959c-0.438,0.001-0.792,0.356-0.795,0.794v2.583h9.513v-2.583
	c0.026-0.41-0.28-0.764-0.691-0.792C312.474,394.337,312.451,394.337,312.428,394.337"/>
<path fill="#F8B64C" d="M314.658,378.639h-12.415c-0.262,0.003-0.475,0.217-0.478,0.48c-0.013,0.272,0.198,0.503,0.472,0.516
	c0.002,0,0.004,0,0.006,0h12.415c0.261-0.005,0.473-0.216,0.477-0.479c0.012-0.273-0.2-0.503-0.472-0.517
	C314.661,378.639,314.659,378.639,314.658,378.639z M298.898,380.826v1.629c0.014,3.868,2.354,7.348,5.931,8.821
	c2.318,0.955,4.921,0.955,7.242,0c3.577-1.473,5.917-4.953,5.93-8.821v-1.629H298.898z M316.411,382.455
	c0.001,1.845-0.648,3.632-1.831,5.047c-1.514,1.825-3.757,2.887-6.13,2.9c-2.374,0.005-4.625-1.06-6.126-2.9
	c-1.174-1.421-1.821-3.205-1.832-5.047v-0.04h15.88v0.04H316.411z"/>
<path fill="#FFD15C" d="M314.658,379.635v4.29c-0.007,4.001-2.474,7.585-6.208,9.021c-3.736-1.453-6.2-5.048-6.207-9.058v-4.252
	H314.658z"/>
<path fill="#FFFFFF" d="M307.903,384.157c0,0-0.356-0.035-0.356,0.279v1.399h2.353v0.419c0.005,0.111-0.082,0.206-0.192,0.211
	c-0.011,0-0.02,0-0.031,0h-2.127v1.817h2.57c0,0,1.553-0.238,1.568-1.817v-2.309H307.903z M311.549,381.892h-4.577
	c-1.655,0.393-1.69,1.773-1.69,1.773v4.629h1.773v-4.212c-0.003-0.206,0.139-0.386,0.338-0.434h4.157L311.549,381.892z"/>
<path d="M293.524,416.066l-0.023-0.015C293.5,416.052,293.51,416.058,293.524,416.066z M290.117,413.297l-0.017-0.017
	C290.1,413.28,290.106,413.289,290.117,413.297z M287.34,410.028l-0.014-0.016L287.34,410.028z M283.707,402.573L283.707,402.573z
	 M283.008,398.722L283.008,398.722z M282.864,394.856v-0.013c0,0,0,0.006,0,0.015V394.856z M283.216,391.034
	c0-0.016,0-0.024,0-0.023c0,0.002-0.002,0.011,0,0.025V391.034z M284.021,387.266L284.021,387.266L284.021,387.266z
	 M285.256,383.585L285.256,383.585C285.256,383.585,285.256,383.581,285.256,383.585z"/>
<g>
	<g>
		<path fill="#A1C2FA" d="M307.383,417.075c-2.18,0.097-4.359-0.163-6.454-0.771c0.749-0.97-0.489-1.937-1.674-2.868l-2.485-1.856
			c-0.029,0.021,1.462,1.508,1.33,2.802c-0.048,0.295-0.041,0.596,0.024,0.889c-0.338-0.158-0.666-0.32-1.001-0.493
			c0.871-0.835-0.116-2.032-1.064-3.169c-1.002-1.145-2.014-2.27-2.016-2.272c-0.002,0,1.109,1.747,0.741,3.022
			c-0.099,0.285-0.146,0.584-0.138,0.887c-0.295-0.221-0.583-0.43-0.863-0.665c0.981-0.691,0.268-2.057-0.442-3.337
			c-0.745-1.302-1.514-2.565-1.514-2.57c0-0.001,0.75,1.902,0.161,3.118c-0.148,0.269-0.246,0.563-0.292,0.866
			c-0.244-0.261-0.48-0.524-0.709-0.793c1.048-0.538,0.641-1.994,0.195-3.382c-0.495-1.408-1.026-2.727-1.022-2.748
			c0.005-0.02,0.397,1.978-0.392,3.104c-0.191,0.246-0.342,0.521-0.443,0.814c-0.189-0.295-0.371-0.592-0.545-0.886
			c1.108-0.392,0.973-1.89,0.775-3.309c-0.241-1.451-0.538-2.815-0.538-2.831c0-0.015,0.064,1.996-0.901,2.983
			c-0.225,0.217-0.415,0.466-0.562,0.741c-0.087-0.203-0.174-0.403-0.256-0.606c-0.062-0.158-0.124-0.315-0.182-0.476
			c1.124-0.208,1.224-1.629,1.254-2.978c0-1.376-0.08-2.677-0.086-2.689c-0.007-0.015-0.222,1.844-1.284,2.658
			c-0.247,0.173-0.465,0.384-0.645,0.624c-0.111-0.424-0.222-0.85-0.297-1.28c1.108-0.029,1.416-1.329,1.637-2.591
			c0.219-1.261,0.298-2.503,0.288-2.503c-0.011,0-0.443,1.678-1.552,2.279c-0.263,0.133-0.502,0.309-0.71,0.517
			c-0.052-0.485-0.092-0.971-0.117-1.458c1.069,0.13,1.523-1.041,1.889-2.178c0.228-0.75,0.417-1.513,0.567-2.284
			c-0.013,0-0.623,1.503-1.738,1.916c-0.269,0.087-0.52,0.221-0.745,0.391c0.014-0.433,0.036-0.865,0.066-1.293
			c0-0.102,0.019-0.204,0.026-0.304c0.963,0.269,1.564-0.771,2.026-1.773c0.46-1.001,0.787-2.063,0.787-2.065
			c0-0.002-0.748,1.331-1.838,1.567c-0.256,0.044-0.504,0.129-0.734,0.253c0.089-0.565,0.198-1.128,0.321-1.689
			c0.848,0.343,1.517-0.532,2.044-1.408c0.352-0.606,0.671-1.232,0.958-1.873c0,0-0.837,1.186-1.869,1.261
			c-0.222,0.009-0.441,0.052-0.65,0.128c0.169-0.582,0.354-1.164,0.56-1.747c0.718,0.366,1.41-0.356,1.977-1.108
			c0.396-0.548,0.763-1.118,1.096-1.708c0,0-0.905,1.064-1.858,1.003c-0.177-0.015-0.354-0.007-0.528,0.024
			c0.235-0.564,0.485-1.131,0.751-1.699l0.047-0.11c0.596,0.368,1.285-0.221,1.877-0.887c0.437-0.504,0.847-1.032,1.23-1.578
			c0,0-0.976,0.971-1.829,0.801c-0.175-0.044-0.354-0.058-0.534-0.041c0.593-1.261,1.259-2.486,1.995-3.669
			c-0.832,1.219-1.57,2.417-2.216,3.602c-0.077-0.214-0.186-0.416-0.321-0.598c-0.273-0.369-0.28-0.962-0.182-1.47
			c0.062-0.316,0.154-0.625,0.277-0.923c-0.439,0.71-0.792,1.471-1.048,2.266c-0.339,1.122-0.329,2.185,0.444,2.316
			c-0.309,0.623-0.59,1.245-0.852,1.863c-0.107-0.172-0.236-0.331-0.384-0.472c-0.352-0.335-0.443-0.929-0.427-1.446
			c0.014-0.322,0.063-0.642,0.146-0.952c-0.357,0.762-0.615,1.566-0.77,2.395c-0.191,1.134-0.047,2.194,0.739,2.281
			c-0.2,0.57-0.382,1.14-0.548,1.711c-0.131-0.144-0.281-0.272-0.443-0.382c-0.856-0.547-0.687-2.254-0.656-2.383
			c-0.27,0.817-0.432,1.666-0.481,2.525c-0.047,1.169,0.238,2.237,1.06,2.245c0,0,0,0,0,0.013c-0.111,0.523-0.209,1.048-0.292,1.578
			c-0.158-0.124-0.331-0.229-0.512-0.313c-0.974-0.443-1.024-2.217-1.009-2.357c-0.176,0.88-0.234,1.779-0.17,2.673
			c0.106,1.224,0.549,2.304,1.42,2.188c-0.04,0.492-0.067,0.984-0.084,1.476c-0.186-0.112-0.384-0.203-0.592-0.269
			c-1.058-0.326-1.364-2.076-1.379-2.295c-0.064,0.936-0.003,1.876,0.182,2.795c0.262,1.264,0.926,2.376,1.815,2.097
			c0.023,0.452,0.061,0.905,0.111,1.358c-0.22-0.105-0.452-0.18-0.691-0.224c-1.172-0.192-1.738-2.045-1.773-2.216
			c0.061,1.003,0.259,1.994,0.591,2.941c0.466,1.314,1.343,2.416,2.25,1.934c0.086,0.41,0.181,0.826,0.291,1.235
			c-0.26-0.087-0.532-0.135-0.805-0.143c-1.281-0.036-2.155-1.982-2.184-2.102c0.211,1.057,0.572,2.078,1.069,3.033
			c0.707,1.346,1.827,2.4,2.709,1.684c0.137,0.364,0.284,0.724,0.443,1.081c-0.296-0.061-0.6-0.075-0.9-0.042
			c-1.362,0.149-2.604-1.832-2.618-1.906c0.385,1.09,0.929,2.114,1.614,3.044c0.975,1.331,2.351,2.286,3.15,1.353
			c0.177,0.296,0.362,0.592,0.555,0.888c-0.304-0.017-0.607,0.01-0.903,0.082c-1.358,0.346-2.95-1.523-2.924-1.553
			c0.556,1.041,1.271,1.991,2.117,2.813c1.202,1.186,2.747,1.935,3.39,0.887c0.221,0.271,0.473,0.538,0.721,0.8
			c-0.305,0.027-0.603,0.099-0.887,0.213c-1.256,0.533-3.03-0.898-3.199-1.074c0.743,0.948,1.621,1.782,2.606,2.471
			c1.448,1.003,3.122,1.462,3.592,0.361c0.285,0.234,0.58,0.455,0.886,0.666c-0.31,0.072-0.609,0.188-0.886,0.349
			c-1.161,0.691-3.214-0.434-3.423-0.586c0.921,0.821,1.959,1.5,3.08,2.018c1.651,0.751,3.445,0.915,3.722-0.222
			c0.333,0.178,0.665,0.342,1.019,0.502c-0.296,0.123-0.573,0.285-0.823,0.484c-1.052,0.866-3.325,0.115-3.591,0
			c1.093,0.656,2.28,1.145,3.518,1.449c1.815,0.444,3.678,0.279,3.769-0.859c2.122,0.619,4.333,0.885,6.542,0.78L307.383,417.075z"
			/>
	</g>
</g>
<path d="M316.55,411.802c0.055-0.075,0.085-0.168,0.082-0.262c0-0.016,0-0.049,0-0.102c0-0.05,0-0.084,0-0.104
	c0.003-0.092-0.029-0.184-0.087-0.259c-0.053-0.063-0.136-0.095-0.221-0.087c-0.082-0.007-0.167,0.025-0.22,0.087
	c-0.058,0.075-0.088,0.167-0.084,0.259v0.104v0.102c-0.004,0.095,0.027,0.187,0.085,0.262c0.059,0.062,0.14,0.093,0.222,0.086
	C316.409,411.895,316.492,411.863,316.55,411.802z M315.85,411.998c-0.118-0.117-0.186-0.277-0.186-0.442v-0.233
	c0-0.167,0.068-0.327,0.187-0.443c0.284-0.213,0.676-0.213,0.96,0c0.12,0.116,0.186,0.276,0.186,0.443c0,0.02,0,0.06,0,0.116
	c0,0.06,0,0.096,0,0.117c0.001,0.165-0.064,0.325-0.182,0.442C316.526,412.213,316.135,412.213,315.85,411.998L315.85,411.998z
	 M314.328,411.998c-0.119-0.117-0.185-0.277-0.184-0.442v-0.105v-0.108c0-0.166,0.065-0.326,0.184-0.444
	c0.128-0.11,0.295-0.168,0.466-0.161c0.123-0.004,0.244,0.022,0.357,0.074c0.088,0.042,0.163,0.103,0.22,0.182
	c0.043,0.061,0.069,0.132,0.075,0.206c0.002,0.018-0.004,0.034-0.016,0.047c-0.015,0.012-0.03,0.017-0.048,0.017h-0.233
	c-0.016,0.006-0.032,0.006-0.047,0c-0.011-0.011-0.02-0.027-0.026-0.045c-0.02-0.058-0.056-0.106-0.104-0.145
	c-0.05-0.033-0.108-0.047-0.166-0.046c-0.083-0.009-0.165,0.024-0.224,0.086c-0.055,0.074-0.084,0.166-0.079,0.262v0.186
	c0.01,0.229,0.107,0.346,0.29,0.346c0.06,0.003,0.12-0.013,0.171-0.044c0.049-0.039,0.083-0.09,0.101-0.149
	c0.006-0.015,0.017-0.029,0.027-0.04c0.012-0.012,0.028-0.017,0.043-0.015h0.235c0.019,0.001,0.034,0.006,0.047,0.018
	c0.015,0.013,0.02,0.029,0.018,0.046c-0.005,0.072-0.031,0.143-0.073,0.2c-0.056,0.082-0.132,0.146-0.222,0.186
	c-0.11,0.055-0.235,0.083-0.358,0.079c-0.169-0.004-0.329-0.066-0.45-0.182L314.328,411.998z M313.514,412.115
	c-0.011-0.012-0.017-0.026-0.017-0.043v-0.271c-0.005-0.033,0.021-0.063,0.054-0.066c0.004,0,0.006,0,0.01,0h0.269
	c0.016,0,0.033,0.009,0.044,0.02c0.013,0.012,0.02,0.028,0.02,0.047v0.268c0,0.017-0.006,0.032-0.019,0.044
	c-0.01,0.015-0.027,0.021-0.045,0.021h-0.269c-0.019,0.002-0.039-0.001-0.053-0.014L313.514,412.115z M312.284,412.1
	c-0.075-0.03-0.146-0.08-0.201-0.142c-0.037-0.038-0.06-0.086-0.065-0.139c-0.002-0.015,0.005-0.033,0.017-0.043
	c0.01-0.011,0.023-0.016,0.042-0.017h0.221c0.016,0.002,0.03,0.009,0.037,0.021l0.061,0.053c0.067,0.055,0.151,0.084,0.238,0.083
	c0.06,0.002,0.121-0.011,0.176-0.04c0.042-0.024,0.066-0.069,0.064-0.12c0.002-0.03-0.009-0.061-0.03-0.084
	c-0.03-0.03-0.068-0.05-0.108-0.061c-0.078-0.026-0.158-0.048-0.239-0.066c-0.121-0.017-0.235-0.067-0.33-0.146
	c-0.074-0.065-0.114-0.16-0.111-0.259c0.002-0.072,0.025-0.142,0.064-0.202c0.052-0.067,0.115-0.118,0.192-0.151
	c0.095-0.044,0.198-0.063,0.301-0.061c0.106-0.002,0.212,0.016,0.311,0.055c0.075,0.031,0.145,0.078,0.2,0.139
	c0.038,0.037,0.062,0.087,0.066,0.142c0,0.014-0.005,0.029-0.016,0.041c-0.01,0.011-0.027,0.017-0.042,0.016h-0.2
	c-0.016,0.002-0.034-0.005-0.045-0.019c-0.02-0.018-0.04-0.032-0.06-0.053c-0.028-0.021-0.059-0.04-0.092-0.055
	c-0.04-0.017-0.082-0.022-0.123-0.021c-0.054-0.008-0.107,0.008-0.15,0.041c-0.034,0.026-0.056,0.067-0.053,0.113
	c-0.003,0.028,0.006,0.056,0.023,0.079c0.03,0.027,0.063,0.048,0.102,0.06c0.074,0.023,0.147,0.043,0.222,0.056
	c0.319,0.062,0.479,0.201,0.479,0.418c0.001,0.125-0.061,0.238-0.163,0.308c-0.139,0.085-0.296,0.126-0.457,0.115
	c-0.116,0.006-0.229-0.013-0.337-0.057L312.284,412.1z M309.709,412.115c-0.011-0.012-0.018-0.026-0.018-0.043v-1.257
	c0-0.02,0.007-0.034,0.018-0.048c0.014-0.01,0.03-0.016,0.048-0.015h0.208c0.019-0.001,0.034,0.004,0.046,0.015
	c0.013,0.014,0.019,0.028,0.019,0.048v0.099c0.092-0.118,0.235-0.185,0.384-0.18c0.175-0.015,0.338,0.079,0.414,0.237
	c0.044-0.074,0.106-0.134,0.182-0.173c0.077-0.044,0.165-0.066,0.253-0.064c0.134-0.003,0.265,0.051,0.356,0.149
	c0.1,0.122,0.149,0.274,0.138,0.432v0.765c0,0.017-0.005,0.033-0.018,0.045c-0.011,0.012-0.028,0.021-0.047,0.021h-0.221
	c-0.019,0-0.035-0.01-0.048-0.021c-0.012-0.012-0.017-0.028-0.017-0.045v-0.743c0.006-0.084-0.019-0.171-0.071-0.241
	c-0.048-0.05-0.114-0.078-0.185-0.074c-0.065-0.002-0.131,0.026-0.178,0.074c-0.054,0.069-0.08,0.157-0.073,0.241v0.743
	c0.001,0.017-0.006,0.033-0.016,0.045c-0.013,0.012-0.03,0.021-0.049,0.021h-0.222c-0.033-0.003-0.062-0.032-0.063-0.066v-0.743
	c0.008-0.084-0.019-0.172-0.071-0.241c-0.049-0.049-0.115-0.078-0.184-0.074c-0.066-0.002-0.132,0.026-0.179,0.074
	c-0.055,0.069-0.079,0.157-0.072,0.241v0.743c0.001,0.017-0.005,0.033-0.016,0.045c-0.014,0.012-0.028,0.021-0.046,0.021h-0.223
	c-0.021,0.002-0.045-0.01-0.057-0.025L309.709,412.115z M308.602,412.115c-0.013-0.012-0.019-0.026-0.018-0.043v-1.252
	c-0.001-0.019,0.005-0.036,0.018-0.05c0.012-0.013,0.028-0.019,0.047-0.018h0.221c0.019-0.001,0.036,0.005,0.049,0.018
	c0.011,0.014,0.019,0.031,0.018,0.05v0.108c0.091-0.12,0.234-0.186,0.384-0.176h0.11c0.02-0.001,0.034,0.004,0.047,0.015
	c0.013,0.014,0.02,0.028,0.018,0.048v0.195c0.002,0.016-0.005,0.031-0.018,0.043c-0.011,0.014-0.027,0.021-0.047,0.02h-0.207
	c-0.074-0.003-0.144,0.022-0.197,0.07c-0.052,0.055-0.076,0.127-0.073,0.198v0.73c0.002,0.017-0.003,0.032-0.019,0.043
	c-0.012,0.013-0.026,0.02-0.045,0.02h-0.255c-0.015,0.002-0.033-0.002-0.046-0.014L308.602,412.115z M307.111,412.115
	c-0.011-0.012-0.019-0.026-0.018-0.043v-1.035h-0.221c-0.033,0.002-0.063-0.023-0.065-0.056c0-0.004,0-0.007,0-0.009v-0.157
	c0-0.019,0.008-0.032,0.018-0.045c0.014-0.013,0.029-0.019,0.048-0.018h0.221v-0.107c-0.01-0.134,0.038-0.265,0.132-0.359
	c0.11-0.09,0.251-0.129,0.391-0.118h0.554c0.017-0.002,0.033,0.004,0.046,0.016c0.012,0.012,0.017,0.029,0.017,0.047v0.155
	c0,0.02-0.005,0.035-0.019,0.047c-0.011,0.012-0.027,0.018-0.044,0.018h-0.54c-0.053-0.006-0.106,0.016-0.146,0.052
	c-0.03,0.046-0.046,0.104-0.043,0.158v0.093h0.729c0.017-0.001,0.033,0.004,0.046,0.015c0.012,0.014,0.017,0.028,0.017,0.048v1.257
	c0,0.017-0.005,0.031-0.017,0.043c-0.011,0.014-0.028,0.021-0.046,0.02h-0.223c-0.034,0-0.063-0.028-0.064-0.063v-1.035h-0.443
	v1.035c0.002,0.017-0.005,0.032-0.017,0.043c-0.013,0.014-0.03,0.021-0.047,0.02h-0.222c-0.021,0.005-0.041,0-0.056-0.014
	L307.111,412.115z M306.13,411.78c0.051-0.068,0.078-0.151,0.08-0.24c0-0.021,0-0.054,0-0.102c0-0.046,0-0.08,0-0.104
	c-0.002-0.079-0.031-0.157-0.083-0.22c-0.055-0.063-0.137-0.099-0.222-0.093c-0.188,0-0.289,0.116-0.303,0.353v0.158
	c0.014,0.223,0.115,0.351,0.303,0.351C305.992,411.888,306.076,411.85,306.13,411.78z M305.392,412.004
	c-0.104-0.131-0.159-0.294-0.158-0.459v-0.187c-0.001-0.166,0.053-0.326,0.155-0.457c0.104-0.118,0.258-0.183,0.416-0.172
	c0.153-0.007,0.303,0.058,0.405,0.174v-0.591c0-0.02,0.006-0.035,0.019-0.047c0.014-0.013,0.029-0.018,0.045-0.017h0.222
	c0.017-0.001,0.034,0.004,0.047,0.017c0.013,0.012,0.019,0.027,0.019,0.047v1.772c0.001,0.017-0.006,0.034-0.019,0.044
	c-0.012,0.015-0.029,0.021-0.047,0.021h-0.222c-0.033-0.001-0.062-0.03-0.063-0.064v-0.101c-0.21,0.235-0.569,0.256-0.804,0.047
	c-0.012-0.01-0.021-0.018-0.03-0.027H305.392z M304.543,411.819c0.055-0.074,0.085-0.165,0.082-0.26c0-0.02,0-0.051,0-0.103
	c0-0.049,0-0.084,0-0.103c0.003-0.095-0.027-0.185-0.082-0.261c-0.056-0.062-0.138-0.095-0.223-0.088
	c-0.083-0.007-0.164,0.026-0.221,0.088c-0.056,0.076-0.085,0.166-0.082,0.261v0.205c-0.003,0.095,0.026,0.186,0.082,0.26
	c0.058,0.06,0.139,0.093,0.221,0.086c0.09,0.007,0.176-0.032,0.231-0.104L304.543,411.819z M303.842,412.017
	c-0.118-0.117-0.185-0.278-0.185-0.443v-0.233c0-0.166,0.067-0.327,0.187-0.444c0.134-0.111,0.306-0.169,0.483-0.159
	c0.174-0.009,0.345,0.048,0.479,0.159c0.119,0.117,0.186,0.278,0.186,0.444c0,0.021,0,0.06,0,0.117c0,0.06,0,0.097,0,0.116
	c0,0.165-0.065,0.326-0.183,0.443C304.521,412.229,304.129,412.229,303.842,412.017L303.842,412.017z M302.966,411.819
	c0.056-0.074,0.084-0.165,0.08-0.26c0.001-0.034,0.001-0.068,0-0.103c0.001-0.033,0.001-0.068,0-0.103
	c0.003-0.096-0.025-0.185-0.083-0.261c-0.056-0.062-0.137-0.095-0.221-0.088c-0.084-0.007-0.166,0.026-0.222,0.088
	c-0.058,0.076-0.087,0.165-0.084,0.261v0.205c-0.003,0.095,0.026,0.187,0.084,0.26c0.123,0.121,0.319,0.121,0.443,0H302.966z
	 M302.267,412.017c-0.12-0.116-0.186-0.277-0.185-0.443v-0.233c0-0.166,0.066-0.327,0.186-0.444c0.286-0.212,0.676-0.212,0.961,0
	c0.119,0.117,0.186,0.278,0.186,0.444c0,0.021,0,0.06,0,0.117c0,0.06,0,0.097,0,0.116c0,0.165-0.066,0.326-0.184,0.443
	C302.944,412.229,302.552,412.229,302.267,412.017L302.267,412.017z M301.335,411.76c0.05-0.067,0.079-0.149,0.082-0.233
	c0.001-0.028,0.001-0.059,0-0.088c0.001-0.025,0.001-0.054,0-0.083c-0.003-0.083-0.032-0.166-0.082-0.235
	c-0.056-0.063-0.137-0.099-0.222-0.094c-0.193,0-0.292,0.115-0.304,0.352v0.061c0,0.277,0.102,0.417,0.307,0.417
	c0.088,0.006,0.174-0.034,0.228-0.104L301.335,411.76z M300.738,412.647c-0.083-0.04-0.156-0.104-0.208-0.181
	c-0.034-0.053-0.056-0.112-0.06-0.173c-0.001-0.018,0.006-0.034,0.017-0.043c0.013-0.013,0.029-0.019,0.045-0.018h0.237
	c0.015-0.002,0.03,0.002,0.042,0.011c0.013,0.013,0.021,0.027,0.026,0.047c0.019,0.043,0.049,0.083,0.088,0.116
	c0.053,0.037,0.118,0.054,0.182,0.05c0.144,0.026,0.282-0.066,0.31-0.21c0.007-0.034,0.006-0.073-0.001-0.106v-0.183
	c-0.228,0.229-0.597,0.229-0.825,0c-0.1-0.131-0.153-0.292-0.148-0.456v-0.073v-0.07c-0.001-0.165,0.051-0.326,0.15-0.457
	c0.104-0.119,0.257-0.184,0.414-0.172c0.086-0.003,0.171,0.015,0.249,0.052c0.069,0.034,0.128,0.082,0.176,0.143v-0.104
	c-0.001-0.018,0.006-0.034,0.02-0.048c0.013-0.012,0.029-0.019,0.047-0.018h0.221c0.018-0.001,0.035,0.006,0.048,0.018
	c0.01,0.015,0.017,0.031,0.017,0.048v1.282c0.012,0.169-0.048,0.333-0.164,0.455c-0.137,0.12-0.315,0.179-0.497,0.165
	c-0.13,0.007-0.259-0.021-0.377-0.075H300.738z"/>
<path fill="#2C72C6" d="M343.75,399.876h-8.071v12.329h8.071l-2.594-5.791L343.75,399.876z M272.006,399.876h8.072v12.329h-8.072
	l2.592-5.791L272.006,399.876z"/>
<path fill="#3D597A" d="M339.76,395.642l-4.079,4.214v12.33l4.079-4.055V395.642z M276.078,395.642l4.09,4.393v12.164l-4.09-4.079
	V395.642z"/>
<path fill="#A1C2FA" d="M308.646,417.247c2.195,0.098,4.394-0.164,6.506-0.772c-0.756-0.978,0.491-1.946,1.688-2.882
	c1.253-0.932,2.506-1.861,2.506-1.865s-1.475,1.516-1.33,2.813c0.05,0.295,0.041,0.596-0.024,0.886
	c0.341-0.153,0.678-0.318,1.01-0.49c-0.887-0.84,0.118-2.038,1.072-3.177c1.011-1.147,2.029-2.277,2.029-2.282
	s-1.12,1.755-0.743,3.034c0.101,0.283,0.146,0.585,0.138,0.885c0.298-0.222,0.587-0.43,0.869-0.665
	c-0.988-0.695-0.267-2.065,0.442-3.348c0.753-1.31,1.528-2.575,1.528-2.578c0,0-0.757,1.906-0.162,3.129
	c0.146,0.27,0.247,0.562,0.292,0.864c0.247-0.259,0.485-0.522,0.715-0.792c-1.057-0.542-0.643-2.008-0.197-3.396
	c0.501-1.411,1.038-2.731,1.031-2.753c0.028,0-0.401,1.983,0.396,3.103c0.192,0.247,0.34,0.52,0.443,0.814
	c0.189-0.296,0.374-0.592,0.55-0.887c-1.126-0.39-0.981-1.896-0.781-3.324c0.242-1.453,0.543-2.823,0.543-2.839
	s-0.064,1.996,0.906,2.992c0.229,0.217,0.419,0.468,0.569,0.744c0.087-0.202,0.174-0.406,0.257-0.611
	c0.063-0.155,0.125-0.313,0.184-0.475c-1.133-0.222-1.235-1.635-1.266-2.987c0-1.378,0.083-2.684,0.089-2.697
	c0.006-0.013,0.221,1.853,1.292,2.66c0.249,0.173,0.47,0.388,0.651,0.629c0.111-0.427,0.211-0.855,0.299-1.288
	c-1.122-0.029-1.429-1.341-1.648-2.596c-0.22-1.259-0.293-2.496-0.281-2.509c0.01-0.014,0.456,1.685,1.572,2.291
	c0.265,0.132,0.505,0.304,0.716,0.514c0.054-0.486,0.092-0.973,0.119-1.461c-1.079,0.129-1.539-1.044-1.906-2.186
	c-0.231-0.753-0.421-1.518-0.572-2.29c0.016,0,0.63,1.507,1.754,1.922c0.269,0.087,0.522,0.22,0.748,0.39
	c-0.012-0.443-0.034-0.867-0.064-1.297c0-0.103-0.017-0.202-0.024-0.304c-0.975,0.271-1.58-0.774-2.043-1.774
	s-0.793-2.07-0.793-2.073s0.752,1.33,1.85,1.572c0.258,0.045,0.507,0.132,0.734,0.26c-0.094-0.568-0.199-1.133-0.325-1.696
	c-0.855,0.345-1.53-0.536-2.063-1.413c-0.354-0.608-0.676-1.235-0.965-1.878c0.012,0,0.846,1.188,1.885,1.264
	c0.227,0.008,0.452,0.051,0.665,0.128c-0.171-0.592-0.359-1.175-0.564-1.751c-0.725,0.366-1.421-0.357-1.996-1.109
	c-0.4-0.549-0.771-1.122-1.107-1.713c0.011,0,0.914,1.068,1.871,1.006c0.178-0.016,0.358-0.008,0.533,0.024
	c-0.234-0.567-0.486-1.135-0.756-1.703l-0.047-0.11c-0.601,0.369-1.296-0.222-1.894-0.887c-0.44-0.505-0.854-1.035-1.241-1.583
	c0.014,0,0.985,0.973,1.845,0.802c0.179-0.04,0.363-0.048,0.546-0.029c-0.599-1.264-1.268-2.493-2.006-3.681
	c0.837,1.224,1.581,2.438,2.239,3.615c0.076-0.215,0.187-0.418,0.322-0.601c0.275-0.367,0.281-0.964,0.185-1.473
	c-0.063-0.318-0.157-0.628-0.28-0.927c0.443,0.713,0.799,1.477,1.059,2.273c0.338,1.125,0.332,2.191-0.442,2.324
	c0.31,0.624,0.595,1.247,0.855,1.87c0.109-0.174,0.24-0.333,0.388-0.474c0.356-0.335,0.445-0.934,0.433-1.451
	c-0.017-0.322-0.064-0.643-0.146-0.956c0.357,0.765,0.618,1.571,0.775,2.401c0.19,1.139,0.046,2.201-0.749,2.289
	c0.201,0.571,0.387,1.142,0.557,1.715c0.132-0.144,0.28-0.272,0.444-0.381c0.852-0.561,0.683-2.262,0.663-2.39
	c0.273,0.819,0.436,1.67,0.484,2.531c0.046,1.176-0.238,2.243-1.067,2.252c0,0,0,0,0,0.014c0.112,0.522,0.213,1.05,0.298,1.581
	c0.155-0.128,0.328-0.237,0.51-0.324c0.98-0.457,1.033-2.23,1.017-2.363c0.179,0.882,0.236,1.784,0.173,2.683
	c-0.108,1.226-0.556,2.308-1.432,2.194c0.039,0.492,0.068,0.985,0.084,1.481c0.188-0.114,0.389-0.206,0.597-0.273
	c1.065-0.326,1.372-2.082,1.389-2.304c0.067,0.943,0.008,1.89-0.181,2.816c-0.267,1.266-0.936,2.381-1.831,2.101
	c-0.026,0.443-0.063,0.91-0.111,1.362c0.222-0.104,0.455-0.179,0.697-0.223c1.185-0.191,1.752-2.051,1.772-2.23
	c-0.06,1.007-0.261,2-0.597,2.951c-0.466,1.331-1.354,2.423-2.267,1.94c-0.086,0.411-0.186,0.827-0.293,1.237
	c0.263-0.087,0.535-0.134,0.812-0.143c1.289-0.036,2.172-1.996,2.2-2.107c-0.212,1.06-0.574,2.084-1.078,3.039
	c-0.71,1.352-1.839,2.411-2.73,1.692c-0.136,0.364-0.283,0.724-0.441,1.083c0.298-0.06,0.604-0.073,0.906-0.043
	c1.375,0.15,2.627-1.837,2.64-1.911c-0.388,1.094-0.937,2.124-1.628,3.054c-0.981,1.331-2.367,2.292-3.174,1.356
	c-0.18,0.304-0.367,0.601-0.558,0.887c0.304-0.019,0.609,0.011,0.908,0.081c1.37,0.349,2.974-1.526,2.947-1.552
	c-0.568,1.055-1.296,2.013-2.162,2.839c-1.209,1.189-2.769,1.941-3.416,0.888c-0.235,0.273-0.475,0.539-0.726,0.804
	c0.31,0.027,0.614,0.103,0.902,0.221c1.25,0.512,3.052-0.925,3.217-1.096c-0.747,0.951-1.631,1.782-2.622,2.474
	c-1.463,1.004-3.148,1.467-3.624,0.361c-0.286,0.234-0.585,0.457-0.886,0.678c0.311,0.072,0.609,0.189,0.886,0.348
	c1.172,0.693,3.242-0.442,3.449-0.587c-0.927,0.824-1.974,1.506-3.102,2.024c-1.665,0.752-3.476,0.916-3.754-0.224
	c-0.336,0.175-0.682,0.346-1.028,0.507c0.292,0.118,0.566,0.279,0.814,0.476c1.063,0.869,3.361,0.117,3.62,0
	c-1.099,0.66-2.289,1.152-3.532,1.46c-1.833,0.444-3.707,0.278-3.795-0.863c-2.141,0.624-4.368,0.888-6.594,0.782L308.646,417.247z"
	/>
<path fill="#FFA829" d="M308.275,366.979l1.309,2.646l2.924,0.424l-2.117,2.07l0.5,2.906l-2.615-1.372l-2.612,1.372l0.498-2.906
	l-2.118-2.06l2.924-0.423L308.275,366.979z"/>
<polygon fill="#4385F4" points="275.987,408.096 339.752,408.096 339.746,395.607 275.987,395.607 "/>
<polygon fill="#F8B64C" points="300.168,372.138 299.386,370.55 298.601,372.138 296.846,372.393 298.117,373.627 297.816,375.372 
	299.386,374.547 300.953,375.372 300.654,373.627 301.925,372.393 "/>
<polygon fill="#F8B64C" points="319.706,372.393 317.948,372.138 317.167,370.55 316.383,372.138 314.631,372.393 315.896,373.627 
	315.598,375.372 317.167,374.547 318.736,375.372 318.436,373.627 "/>
<polygon fill="#FFD15C" points="295.808,376.276 295.338,375.324 294.868,376.276 293.815,376.429 294.576,377.169 294.396,378.216 
	295.338,377.725 296.278,378.216 296.099,377.169 296.862,376.429 "/>
<polygon fill="#FFD15C" points="322.735,376.429 321.683,376.276 321.213,375.324 320.742,376.276 319.69,376.429 320.454,377.169 
	320.273,378.216 321.213,377.725 322.157,378.216 321.976,377.169 "/>
<g>
	<path fill="#FFFFFF" d="M281.967,403.376v-2.192h-0.776v-0.467h2.111v0.456h-0.772v2.203H281.967z"/>
	<path fill="#FFFFFF" d="M285.957,402.046c0,0.845-0.494,1.373-1.282,1.373c-0.787,0-1.29-0.521-1.29-1.373
		c0-0.85,0.493-1.372,1.279-1.372C285.451,400.674,285.957,401.207,285.957,402.046z M283.962,402.046
		c0,0.559,0.279,0.908,0.713,0.908c0.435,0,0.714-0.35,0.714-0.908c0-0.557-0.28-0.911-0.714-0.911
		C284.241,401.135,283.962,401.498,283.962,402.046z"/>
	<path fill="#FFFFFF" d="M287.411,400.717c0.478-0.029,0.89,0.332,0.919,0.811c0.001,0.032,0.002,0.065,0.001,0.099
		c0.013,0.489-0.373,0.897-0.863,0.911c-0.028,0.001-0.057,0.001-0.084-0.003h-0.525v0.842h-0.557v-2.659H287.411z M286.859,402.102
		h0.403c0.261,0,0.472-0.212,0.473-0.475c0-0.259-0.21-0.471-0.471-0.471c-0.001,0-0.001,0-0.002,0h-0.403V402.102z"/>
	<path fill="#FFFFFF" d="M289.905,402.624c0.024,0.222,0.252,0.363,0.547,0.363s0.499-0.142,0.499-0.337
		c0-0.194-0.126-0.27-0.443-0.342l-0.34-0.075c-0.489-0.104-0.729-0.353-0.729-0.741c0-0.488,0.423-0.813,1.015-0.813
		c0.592,0,1.007,0.318,1.016,0.797h-0.532c-0.017-0.22-0.221-0.357-0.491-0.357c-0.271,0-0.459,0.127-0.459,0.325
		c0,0.164,0.128,0.258,0.442,0.326l0.322,0.068c0.531,0.113,0.765,0.341,0.765,0.747c0,0.515-0.419,0.84-1.078,0.84
		s-1.043-0.304-1.062-0.802H289.905z"/>
	<path fill="#FFFFFF" d="M293.606,403.376h-1.76v-2.659h1.76v0.456h-1.203v0.652h1.135v0.428h-1.135v0.666h1.203V403.376z"/>
	<path fill="#FFFFFF" d="M296.487,402.046c0,0.845-0.495,1.373-1.282,1.373c-0.787,0-1.282-0.528-1.282-1.373
		c0-0.842,0.495-1.372,1.282-1.372C295.992,400.674,296.487,401.207,296.487,402.046z M294.491,402.046
		c0,0.559,0.277,0.908,0.714,0.908s0.712-0.35,0.712-0.908c0-0.557-0.278-0.911-0.712-0.911S294.491,401.498,294.491,402.046z"/>
	<path fill="#FFFFFF" d="M298.089,402.624c0.028,0.222,0.254,0.363,0.548,0.363c0.294,0,0.499-0.142,0.499-0.337
		c0-0.194-0.126-0.27-0.443-0.342l-0.348-0.075c-0.488-0.104-0.73-0.353-0.73-0.741c0-0.488,0.423-0.813,1.016-0.813
		c0.592,0,1.007,0.318,1.016,0.797h-0.521c-0.018-0.22-0.222-0.357-0.492-0.357c-0.27,0-0.458,0.127-0.458,0.325
		c0,0.164,0.128,0.258,0.443,0.326l0.322,0.068c0.532,0.113,0.765,0.342,0.765,0.747c0,0.515-0.419,0.84-1.078,0.84
		c-0.659,0-1.044-0.304-1.062-0.802H298.089z"/>
	<path fill="#FFFFFF" d="M301.791,403.376h-1.759v-2.659h1.759v0.456h-1.204v0.652h1.136v0.428h-1.136v0.666h1.204V403.376z"/>
	<path fill="#FFFFFF" d="M302.75,403.376h-0.558v-2.659h1.099c0.609,0,0.959,0.322,0.959,0.848c0.013,0.326-0.179,0.626-0.48,0.753
		l0.558,1.056h-0.637l-0.493-0.973h-0.455L302.75,403.376z M302.75,402.001h0.499c0.218,0.026,0.415-0.129,0.441-0.346
		c0.003-0.026,0.003-0.051,0.001-0.075c0.01-0.225-0.165-0.416-0.39-0.425c-0.018-0.001-0.035-0.001-0.053,0.001h-0.481
		L302.75,402.001z"/>
	<path fill="#FFFFFF" d="M305.31,403.376l-0.887-2.659h0.621l0.607,2.083h0.015l0.606-2.083h0.605l-0.887,2.659H305.31z"/>
	<path fill="#FFFFFF" d="M307.144,403.376v-2.659h0.557v2.659H307.144z"/>
	<path fill="#FFFFFF" d="M308.056,402.046c0-0.855,0.488-1.37,1.257-1.37c0.638,0,1.127,0.405,1.17,0.999h-0.542
		c-0.039-0.314-0.312-0.548-0.628-0.54c-0.418,0-0.688,0.351-0.688,0.91s0.265,0.918,0.69,0.918c0.31,0.02,0.581-0.202,0.626-0.507
		h0.542c-0.063,0.592-0.518,0.966-1.17,0.966C308.541,403.426,308.056,402.908,308.056,402.046z"/>
	<path fill="#FFFFFF" d="M312.583,403.376h-1.758v-2.659h1.758v0.456h-1.201v0.652h1.134v0.428h-1.134v0.666h1.201V403.376z"/>
	<path fill="#FFFFFF" d="M313.42,402.624c0.028,0.222,0.257,0.363,0.549,0.363c0.291,0,0.498-0.142,0.498-0.337
		c0-0.194-0.126-0.27-0.443-0.342l-0.345-0.075c-0.49-0.104-0.732-0.353-0.732-0.741c0-0.488,0.424-0.813,1.016-0.813
		s1.007,0.318,1.017,0.797h-0.52c-0.021-0.22-0.224-0.357-0.495-0.357s-0.458,0.127-0.458,0.325c0,0.164,0.129,0.258,0.443,0.326
		l0.324,0.068c0.53,0.113,0.761,0.342,0.761,0.747c0,0.515-0.418,0.84-1.075,0.84c-0.656,0-1.045-0.304-1.063-0.802H313.42z"/>
	<path fill="#FFFFFF" d="M316.092,402.046c0-0.855,0.488-1.37,1.255-1.37c0.642,0,1.126,0.405,1.17,0.999h-0.542
		c-0.04-0.314-0.312-0.548-0.628-0.54c-0.419,0-0.69,0.351-0.69,0.91s0.269,0.918,0.692,0.918c0.309,0.018,0.58-0.202,0.628-0.507
		h0.541c-0.063,0.592-0.521,0.966-1.171,0.966C316.575,403.426,316.092,402.908,316.092,402.046z"/>
	<path fill="#FFFFFF" d="M321.337,402.046c0,0.845-0.494,1.373-1.281,1.373s-1.279-0.528-1.279-1.373
		c0-0.842,0.492-1.372,1.279-1.372S321.337,401.207,321.337,402.046z M319.342,402.046c0,0.559,0.279,0.908,0.714,0.908
		s0.705-0.345,0.705-0.908c0-0.562-0.279-0.911-0.714-0.911S319.342,401.498,319.342,402.046z"/>
	<path fill="#FFFFFF" d="M324.506,403.376h-0.495v-1.792h-0.013l-0.723,1.774h-0.351l-0.721-1.774h-0.017v1.792h-0.494v-2.659h0.646
		l0.753,1.883h0.018l0.754-1.883h0.644L324.506,403.376z"/>
	<path fill="#FFFFFF" d="M326.055,400.717c0.479-0.029,0.89,0.332,0.92,0.811c0.002,0.032,0.002,0.065,0.001,0.099
		c0.013,0.489-0.374,0.897-0.863,0.911c-0.028,0.001-0.057,0.001-0.084-0.003h-0.525v0.842h-0.555v-2.659H326.055z M325.503,402.102
		h0.403c0.261,0,0.473-0.212,0.473-0.475c0-0.259-0.21-0.471-0.471-0.471c-0.001,0-0.002,0-0.002,0h-0.404L325.503,402.102z"/>
	<path fill="#FFFFFF" d="M328.589,402.737h-0.932l-0.2,0.639h-0.571l0.923-2.659h0.652l0.925,2.659h-0.594L328.589,402.737z
		 M327.777,402.319h0.692l-0.338-1.087h-0.013L327.777,402.319z"/>
	<path fill="#FFFFFF" d="M329.655,403.376v-2.659h0.463l1.24,1.729h0.015v-1.729h0.533v2.659h-0.459l-1.246-1.738h-0.014v1.738
		H329.655z"/>
	<path fill="#FFFFFF" d="M333.103,403.376v-0.992l-0.925-1.667h0.604l0.595,1.134h0.02l0.597-1.134h0.596l-0.926,1.663v0.996
		H333.103z"/>
</g>
<image overflow="visible" width="1366" height="768" xlink:href="ECFA6F1.jpg"  transform="matrix(0.6752 0 0 0.6752 -1013.8701 321.2739)">
</image>
</svg>
