<?xml version="1.0" encoding="UTF-8"?> <svg xmlns="http://www.w3.org/2000/svg" width="30" height="30" viewBox="0 0 30 30" fill="none"><path d="M29.8477 21.59V7.65001C29.8477 3.42503 26.4226 0 22.1977 0L8.25765 0C4.03267 0 0.607651 3.42503 0.607651 7.65001V21.59C0.607651 25.815 4.03267 29.24 8.25765 29.24H22.1977C26.4226 29.24 29.8477 25.815 29.8477 21.59Z" fill="#DA0000"></path><path d="M23.0591 12.4993C23.0591 11.5684 22.6893 10.6756 22.031 10.0173C21.3728 9.35906 20.48 8.98926 19.5491 8.98926H10.5491C9.61816 8.98926 8.72536 9.35906 8.06711 10.0173C7.40886 10.6756 7.03906 11.5684 7.03906 12.4993V16.6793C7.03906 17.1402 7.12985 17.5966 7.30624 18.0225C7.48264 18.4483 7.74117 18.8353 8.06711 19.1612C8.39304 19.4871 8.77999 19.7457 9.20584 19.9221C9.63169 20.0985 10.0881 20.1893 10.5491 20.1893H19.5491C20.01 20.1893 20.4664 20.0985 20.8923 19.9221C21.3181 19.7457 21.7051 19.4871 22.031 19.1612C22.3569 18.8353 22.6155 18.4483 22.7919 18.0225C22.9683 17.5966 23.0591 17.1402 23.0591 16.6793V12.4993ZM17.7791 14.8993L13.7791 16.8993C13.6291 16.9793 13.0891 16.8993 13.0891 16.6893V12.5993C13.0891 12.4193 13.6291 12.2993 13.7891 12.3893L17.6391 14.4893C17.7691 14.5793 17.9391 14.8193 17.7791 14.9193V14.8993Z" fill="white"></path></svg> 